<?xml version="1.0" encoding="utf-8"?>
<!-- Generator: Adobe Illustrator 17.0.0, SVG Export Plug-In . SVG Version: 6.00 Build 0)  -->
<!DOCTYPE svg PUBLIC "-//W3C//DTD SVG 1.1//EN" "http://www.w3.org/Graphics/SVG/1.1/DTD/svg11.dtd">
<svg version="1.1" id="Layer_1" xmlns="http://www.w3.org/2000/svg" xmlns:xlink="http://www.w3.org/1999/xlink" x="0px" y="0px"
	 width="400px" height="400px" viewBox="0 0 400 400" enable-background="new 0 0 400 400" xml:space="preserve">
<path fill="#FFFFFF" d="M258.666,286.372l70.059-167.829c-0.196,0.022-0.393,0.041-0.59,0.062l0.242-0.254
	c-0.814-0.773-20.682-19.136-86.799-37.411c-60.065-16.581-86.638-11.434-91.822-10.077c-0.199-0.145-0.4-0.289-0.598-0.435
	l-0.081,0.625c-0.124,0.037-0.211,0.066-0.253,0.08l0.176,0.523l-0.142,1.104l-16.068,124.702
	c-2.679,0.121-9.734,1.294-12.095,10.105c-1.275,4.76-1.948,8.946,0.08,13.153c-0.17,0.59-0.321,1.201-0.433,1.855
	c-0.918,5.347,0.393,10.193,7.204,15.583l-9.077,70.443c0,0,19.518,20.16,54.651,29.816l-0.003,0.011
	c0.145,0.039,0.287,0.072,0.432,0.11c0.144,0.039,0.284,0.082,0.429,0.121l0.003-0.011c35.254,9.203,62.237,1.504,62.237,1.504
	l6.648-15.925c8.581-1.264,12.137-4.804,14.013-9.89c0.23-0.623,0.404-1.227,0.552-1.823c3.86-2.629,5.371-6.591,6.646-11.351
	C266.433,292.368,260.933,287.825,258.666,286.372z M240.778,83.832c54.265,14.999,77.305,30.313,83.625,35.14
	c-41.801,3.691-79.585-3.949-90.203-6.795c-10.618-2.845-46.826-15.014-81.109-38.935C161.868,71.714,188.694,69.436,240.778,83.832
	z M121.659,207.826c2.178-8.13,8.454-9.257,11.002-9.372l-1.888,14.654c-1.411-0.051-3.815,0.14-6.021,1.657
	c-1.514,1.042-2.666,2.539-3.459,4.453C119.936,215.577,120.561,211.923,121.659,207.826z M128.86,227.947
	c-3.575-2.573-5.762-5.006-6.991-7.421c0.712-2.186,1.862-3.842,3.439-4.93c1.916-1.323,4.053-1.516,5.335-1.486L128.86,227.947z
	 M121.326,222.744c0.043-0.252,0.1-0.488,0.152-0.73c1.424,2.303,3.719,4.631,7.235,7.078l-1.022,7.929
	C121.668,232.071,120.489,227.614,121.326,222.744z M234.029,337.603c-5.838,1.344-29.707,5.865-59.292-1.858l-0.321-0.083
	l-0.502-0.138c-29.488-8.105-47.898-23.958-52.278-28.036l8.674-67.319c7.354,4.96,19.436,10.458,38.627,17.248l0.333-0.942
	c-19.583-6.929-31.652-12.449-38.821-17.389l1.054-8.182c3.131,1.905,7.009,3.893,11.788,6.005
	c24.332,10.757,46.904,16.888,47.129,16.948l0.26-0.966c-0.225-0.06-22.722-6.17-46.984-16.897
	c-4.957-2.191-8.905-4.238-12.05-6.192l16.233-125.983c4.507,3.887,16.551,12.132,45.654,22.168l0.326-0.945
	c-30.025-10.354-41.851-18.912-45.822-22.453l0.533-4.133c3.981,3.626,15.743,12.178,46.257,22.701l0.326-0.945
	c-31.718-10.938-43.13-19.873-46.422-23.004l0.673-5.221c4.038,4.017,21.097,17.547,78.863,33.026l0.259-0.966
	c-60.497-16.21-76.337-30.565-78.955-33.35l1.921-14.909c34.572,24.084,65.303,34.835,81.932,39.29s48.619,10.511,90.601,6.94
	l-80.535,192.925c-3.704,0.121-8.151-0.081-13.548-0.662c-26.37-2.841-48.914-8.799-49.138-8.859l-0.258,0.966
	c0.225,0.06,22.839,6.037,49.29,8.887c5.203,0.561,9.559,0.778,13.227,0.692l-3.178,7.612c-8.678,0.697-21.894-0.557-42.331-4.35
	l-0.182,0.982c20.028,3.718,33.244,4.996,42.093,4.375L234.029,337.603z M252.201,301.86c1.126,0.618,2.871,1.852,3.865,3.947
	c0.821,1.731,0.989,3.74,0.513,5.99c-2.268,1.475-5.374,2.487-9.748,2.929L252.201,301.86z M243.305,323.169l3.079-7.376
	c4.26-0.363,7.407-1.23,9.788-2.511c-0.075,0.235-0.145,0.468-0.233,0.707C254.23,318.622,250.986,321.891,243.305,323.169z
	 M256.963,305.367c-1.148-2.409-3.125-3.775-4.373-4.439l5.691-13.633c2.155,1.381,7.004,5.494,4.83,13.609
	c-1.098,4.097-2.384,7.574-5.379,10.049C258.003,308.899,257.753,307.026,256.963,305.367z">
              <animateTransform attributeName="transform" type="translate"
                     values="15,15;-15,-15;15,15;-15,-15;15,15;-15,-15" dur="800ms" repeatDur="1"/>
    </path>
</svg>
