<?xml version="1.0" encoding="utf-8"?>
<!-- Generator: Adobe Illustrator 17.0.0, SVG Export Plug-In . SVG Version: 6.00 Build 0)  -->
<!DOCTYPE svg PUBLIC "-//W3C//DTD SVG 1.1//EN" "http://www.w3.org/Graphics/SVG/1.1/DTD/svg11.dtd">
<svg version="1.1" id="Layer_1" xmlns="http://www.w3.org/2000/svg" xmlns:xlink="http://www.w3.org/1999/xlink" x="0px" y="0px"
	 width="400px" height="400px" viewBox="0 0 400 400" enable-background="new 0 0 400 400" xml:space="preserve">
<path fill="#FFFFFF" d="M293.664,244.968L270.422,64.594c-0.159,0.117-0.32,0.232-0.48,0.349l0.082-0.341
	c-1.091-0.262-27.479-6.232-93.876,11.001C115.84,91.276,95.4,109.02,91.59,112.787c-0.245-0.026-0.491-0.051-0.736-0.078
	l0.243,0.582c-0.088,0.094-0.15,0.162-0.179,0.196l0.414,0.365l0.429,1.027l48.436,116.029c-2.26,1.444-7.783,5.988-5.422,14.798
	c1.275,4.76,2.786,8.722,6.646,11.351c0.148,0.596,0.323,1.2,0.552,1.823c1.878,5.09,5.437,8.631,14.031,9.893l27.361,65.544
	c0,0,26.983,7.7,62.237-1.504l0.003,0.011c0.145-0.039,0.284-0.081,0.429-0.121c0.145-0.038,0.287-0.071,0.432-0.11l-0.003-0.011
	c35.133-9.657,54.651-29.816,54.651-29.816l-2.205-17.116c6.799-5.385,8.109-10.229,7.191-15.572
	c-0.112-0.654-0.263-1.265-0.433-1.855c2.029-4.207,1.356-8.394,0.081-13.153C303.388,246.276,296.354,245.092,293.664,244.968z
	 M176.902,78.507c54.494-14.143,82.104-12.4,89.992-11.38c-34.355,24.097-70.897,36.372-81.515,39.217s-48.059,10.411-89.71,6.836
	C102.505,107.468,124.598,92.082,176.902,78.507z M135.739,245.448c-2.178-8.13,2.693-12.244,4.842-13.617l5.692,13.635
	c-1.247,0.662-3.234,2.028-4.386,4.446c-0.791,1.659-1.04,3.532-0.769,5.586C138.122,253.022,136.837,249.545,135.739,245.448z
	 M152.036,259.273c-4.383-0.441-7.493-1.454-9.765-2.931c-0.477-2.249-0.309-4.258,0.513-5.989c0.998-2.104,2.752-3.339,3.877-3.954
	L152.036,259.273z M142.91,258.534c-0.088-0.24-0.158-0.473-0.233-0.708c2.384,1.283,5.536,2.15,9.805,2.513l3.08,7.378
	C147.869,266.441,144.62,263.17,142.91,258.534z M297.943,301.654c-4.384,4.083-22.794,19.933-52.278,28.037l-0.32,0.089
	l-0.504,0.131c-29.59,7.725-53.46,3.201-59.292,1.859l-26.147-62.637c8.848,0.619,22.061-0.661,42.076-4.376l-0.182-0.982
	c-20.424,3.791-33.636,5.045-42.314,4.352l-3.178-7.613c3.664,0.084,8.016-0.133,13.211-0.693c26.45-2.85,49.064-8.826,49.289-8.887
	l-0.258-0.966c-0.225,0.06-22.763,6.017-49.138,8.859c-5.389,0.581-9.831,0.783-13.532,0.663l-48.933-117.221
	c5.846,1.113,20.399,2.231,50.622-3.629l-0.19-0.981c-31.18,6.046-45.7,4.547-50.909,3.466l-1.605-3.846
	c5.261,1.15,19.723,2.675,51.411-3.469l-0.19-0.981c-32.938,6.387-47.288,4.355-51.705,3.289l-2.028-4.858
	c5.506,1.46,27.044,4.648,84.81-10.83l-0.259-0.966c-60.497,16.21-81.392,11.699-85.052,10.595l-5.791-13.872
	c41.982,3.571,73.972-2.484,90.601-6.94c16.629-4.456,47.36-15.207,81.932-39.29l26.717,207.346c-3.148,1.957-7.1,4.006-12.064,6.2
	c-24.258,10.725-46.76,16.837-46.984,16.897l0.26,0.966c0.225-0.06,22.797-6.191,47.13-16.948c4.786-2.116,8.667-4.106,11.801-6.014
	l1.054,8.181c-7.167,4.942-19.24,10.465-38.834,17.398l0.333,0.942c19.204-6.794,31.288-12.295,38.641-17.258L297.943,301.654z
	 M295.809,261.614c1.284-0.028,3.412,0.168,5.32,1.486c1.577,1.089,2.727,2.744,3.439,4.931c-1.227,2.412-3.411,4.841-6.977,7.411
	L295.809,261.614z M298.76,284.516l-1.021-7.927c3.508-2.444,5.799-4.769,7.221-7.069c0.052,0.241,0.108,0.478,0.152,0.729
	C305.947,275.115,304.772,279.569,298.76,284.516z M301.686,262.269c-2.199-1.513-4.593-1.707-6.007-1.658l-1.888-14.652
	c2.557,0.118,8.813,1.256,10.987,9.371c1.098,4.097,1.723,7.751,0.367,11.392C304.352,264.808,303.2,263.311,301.686,262.269z">
	    <animateTransform attributeName="transform" type="translate"
                        values="-15,15;15,-15;-15,15;15,-15;-15,15;15,-15" dur="800ms" repeatDur="1"/>

	</path>
</svg>
